# xmcd
#
# Track frame offsets:
#	150
#	14912
#	27488
#	44386
#	58020
#	77406
#	90669
#	110305
#	126244
#	146334
#	164484
#	183264
#	199102
#	219205
#	234277
#
# Disc length: 3287 seconds
#
# Revision: 0
# Processed by: cddbd v1.5.2PL0 Copyright (c) Steve Scherf et al.
# Submitted via: audiograbber 1.83.01
#
DISCID=c70cd50f
DTITLE=Fun Lovin' Criminals - Welcome To Poppy's
DYEAR=2003
DGENRE=Hip-Hop
TTITLE0=Too Hot
TTITLE1=Stray Bullet
TTITLE2=Living In The Streets
TTITLE3=Lost It All
TTITLE4=Friday Night
TTITLE5=You Got A Problem
TTITLE6=Running For Cover
TTITLE7=Take Me Back
TTITLE8=What Had Happened?
TTITLE9=Got Our Love
TTITLE10=This Sick World
TTITLE11=Steak Knife
TTITLE12=Beautiful
TTITLE13=Baby
TTITLE14=You Just Can't Have It All
EXTD=
EXTT0=
EXTT1=
EXTT2=
EXTT3=
EXTT4=
EXTT5=
EXTT6=
EXTT7=
EXTT8=
EXTT9=
EXTT10=
EXTT11=
EXTT12=
EXTT13=
EXTT14=
PLAYORDER=
